<svg width="48" height="49" viewBox="0 0 48 49" fill="none" xmlns="http://www.w3.org/2000/svg">
<g clip-path="url(#clip0_1_23)">
<path d="M24 48.7642C37.2548 48.7642 48 38.0088 48 24.7412C48 11.4737 37.2548 0.718216 24 0.718216C10.7452 0.718216 0 11.4737 0 24.7412C0 38.0088 10.7452 48.7642 24 48.7642Z" fill="#4D76A1"/>
<path fill-rule="evenodd" clip-rule="evenodd" d="M23.0934 35.2775H24.9771C24.9771 35.2775 25.5461 35.2149 25.8366 34.9015C26.104 34.6137 26.0955 34.0733 26.0955 34.0733C26.0955 34.0733 26.0587 31.5433 27.2318 31.1707C28.3882 30.8037 29.8731 33.6159 31.4471 34.6972C32.6373 35.5156 33.5417 35.3361 33.5417 35.3361L37.7502 35.2775C37.7502 35.2775 39.9518 35.1417 38.9079 33.4091C38.8223 33.2673 38.3 32.1274 35.7788 29.7849C33.14 27.3333 33.4934 27.7299 36.6721 23.4891C38.608 20.9064 39.3819 19.3296 39.1402 18.6543C38.9096 18.0111 37.4858 18.1811 37.4858 18.1811L32.7472 18.2107C32.7472 18.2107 32.396 18.1627 32.1355 18.3186C31.8809 18.4715 31.7171 18.8278 31.7171 18.8278C31.7171 18.8278 30.9671 20.8263 29.9668 22.526C27.8568 26.1124 27.0131 26.3017 26.6683 26.079C25.8661 25.56 26.0664 23.994 26.0664 22.8814C26.0664 19.4059 26.593 17.9567 25.0409 17.5816C24.5258 17.457 24.1467 17.3748 22.8295 17.3615C21.1387 17.3439 19.7076 17.3666 18.8973 17.764C18.3583 18.0282 17.9424 18.6171 18.1957 18.6509C18.5089 18.6929 19.2182 18.8423 19.5943 19.3549C20.0798 20.0161 20.0627 21.5012 20.0627 21.5012C20.0627 21.5012 20.3417 25.5925 19.4112 26.1009C18.7724 26.4494 17.8962 25.7377 16.0151 22.484C15.0512 20.8173 14.3235 18.9751 14.3235 18.9751C14.3235 18.9751 14.1832 18.6308 13.9329 18.4466C13.6291 18.2235 13.2047 18.1524 13.2047 18.1524L8.7019 18.182C8.7019 18.182 8.02594 18.2008 7.7778 18.495C7.55705 18.7567 7.76026 19.2979 7.76026 19.2979C7.76026 19.2979 11.2855 27.5534 15.2771 31.7137C18.9371 35.528 23.0934 35.2775 23.0934 35.2775Z" fill="white"/>
</g>
<defs>
<clipPath id="clip0_1_23">
<rect width="48" height="48.046" fill="white" transform="translate(0 0.718216)"/>
</clipPath>
</defs>
</svg>
