<svg width="48" height="49" viewBox="0 0 48 49" fill="none" xmlns="http://www.w3.org/2000/svg">
<g clip-path="url(#clip0_1_17)">
<path d="M23.9869 0.730847C10.7399 0.73366 0.00333492 11.4851 0.00614575 24.7448C0.0070827 29.3362 1.3234 33.831 3.79881 37.6964L0.0670472 47.388C-0.131679 47.9034 0.124669 48.4826 0.639615 48.6815C0.754765 48.7259 0.877037 48.7487 1.00043 48.7485C1.11493 48.7491 1.22858 48.7295 1.33623 48.6905L11.3304 45.1192C22.5748 52.1291 37.3675 48.6875 44.3706 37.4321C51.3737 26.1768 47.9355 11.37 36.6909 4.36021C32.8793 1.9839 28.4776 0.726439 23.9869 0.730847Z" fill="#55CD6C"/>
<path d="M35.4223 28.8431C35.4223 28.8431 32.9737 27.6427 31.4406 26.8424C29.7057 25.9481 27.6669 27.6227 26.7075 28.5751C25.2142 28.0009 23.8504 27.1343 22.6958 26.0261C21.5884 24.8706 20.7227 23.5055 20.1493 22.0106C21.1008 21.0483 22.7697 19.0095 21.8803 17.2729C21.0907 15.7364 19.8815 13.2875 19.8815 13.2855C19.7118 12.9484 19.3671 12.7356 18.99 12.7353H16.9912C14.0803 13.2385 11.9639 15.7808 11.9942 18.7375C11.9942 21.8786 15.75 27.9129 18.2825 30.4497C20.8151 32.9866 26.8435 36.7441 29.9836 36.7441C32.9374 36.7744 35.4773 34.6559 35.98 31.7423V29.7416C35.9803 29.36 35.7641 29.0116 35.4223 28.8431Z" fill="#FAFAFA"/>
</g>
<defs>
<clipPath id="clip0_1_17">
<rect width="48" height="48.046" fill="white" transform="translate(0 0.718216)"/>
</clipPath>
</defs>
</svg>
